<svg width="1045" height="780" viewBox="0 0 1045 780" fill="none" xmlns="http://www.w3.org/2000/svg">
<g opacity="0.05" clip-path="url(#clip0_2437_1227)">
<path d="M1089.31 424.457C1139.96 475.155 1222.07 475.155 1272.71 424.457C1323.36 373.76 1323.36 291.562 1272.71 240.865C1222.07 190.167 1139.96 190.167 1089.31 240.865C1038.67 291.562 1038.67 373.759 1089.31 424.457Z" stroke="white" stroke-width="2" stroke-miterlimit="10"/>
<path d="M1004.14 473.524C1054.79 524.221 1136.9 524.221 1187.54 473.524C1238.19 422.826 1238.19 340.629 1187.54 289.931C1136.9 239.233 1054.79 239.233 1004.14 289.931C953.497 340.629 953.497 422.826 1004.14 473.524Z" stroke="white" stroke-width="2" stroke-miterlimit="10"/>
<path d="M1004.14 375.395C1054.79 426.092 1136.9 426.092 1187.54 375.395C1238.19 324.697 1238.19 242.5 1187.54 191.802C1136.9 141.104 1054.79 141.104 1004.14 191.802C953.497 242.5 953.497 324.697 1004.14 375.395Z" stroke="white" stroke-width="2" stroke-miterlimit="10"/>
<path d="M1089.31 782.234C1139.96 832.932 1222.07 832.932 1272.71 782.235C1323.36 731.537 1323.36 649.34 1272.71 598.642C1222.07 547.944 1139.96 547.944 1089.31 598.642C1038.67 649.34 1038.67 731.537 1089.31 782.234Z" stroke="white" stroke-width="2" stroke-miterlimit="10"/>
<path d="M1004.14 831.301C1054.78 881.999 1136.9 881.999 1187.54 831.301C1238.19 780.603 1238.19 698.406 1187.54 647.708C1136.9 597.011 1054.78 597.011 1004.14 647.708C953.493 698.406 953.493 780.603 1004.14 831.301Z" stroke="white" stroke-width="2" stroke-miterlimit="10"/>
<path d="M1004.14 733.172C1054.79 783.87 1136.9 783.87 1187.54 733.172C1238.19 682.474 1238.19 600.277 1187.54 549.579C1136.9 498.882 1054.79 498.882 1004.14 549.58C953.497 600.277 953.497 682.474 1004.14 733.172Z" stroke="white" stroke-width="2" stroke-miterlimit="10"/>
<path d="M116.924 690.45C116.924 762.148 174.987 820.27 246.611 820.271C318.234 820.271 376.297 762.148 376.297 690.45C376.297 618.752 318.234 560.629 246.611 560.629C174.987 560.629 116.924 618.752 116.924 690.45Z" stroke="white" stroke-width="2" stroke-miterlimit="10"/>
<path d="M31.7523 739.512C31.7523 811.21 89.8149 869.333 161.439 869.333C233.062 869.333 291.125 811.21 291.125 739.512C291.125 667.814 233.062 609.691 161.439 609.691C89.8149 609.691 31.7523 667.814 31.7523 739.512Z" stroke="white" stroke-width="2" stroke-miterlimit="10"/>
<path d="M31.7523 641.385C31.7523 713.083 89.8149 771.206 161.439 771.206C233.062 771.206 291.125 713.083 291.125 641.385C291.125 569.687 233.062 511.564 161.439 511.564C89.8149 511.564 31.7523 569.687 31.7523 641.385Z" stroke="white" stroke-width="2" stroke-miterlimit="10"/>
<path d="M310.139 869.333C310.139 941.031 368.202 999.153 439.825 999.153C511.449 999.153 569.512 941.031 569.512 869.333C569.512 797.634 511.449 739.512 439.825 739.512C368.202 739.512 310.139 797.634 310.139 869.333Z" stroke="white" stroke-width="2" stroke-miterlimit="10"/>
<path d="M395.311 820.27C395.311 891.968 453.373 950.091 524.997 950.091C596.621 950.091 654.684 891.968 654.684 820.27C654.684 748.572 596.621 690.449 524.997 690.449C453.373 690.449 395.311 748.572 395.311 820.27Z" stroke="white" stroke-width="2" stroke-miterlimit="10"/>
<path d="M621.604 690.448C621.604 762.146 679.666 820.269 751.29 820.269C822.914 820.269 880.977 762.146 880.977 690.448C880.977 618.75 822.914 560.627 751.29 560.627C679.666 560.627 621.604 618.75 621.604 690.448Z" stroke="white" stroke-width="2" stroke-miterlimit="10"/>
<path d="M744.768 733.166C795.413 783.864 877.525 783.864 928.17 733.166C978.815 682.468 978.815 600.271 928.17 549.574C877.525 498.876 795.413 498.876 744.768 549.574C694.122 600.271 694.122 682.468 744.768 733.166Z" stroke="white" stroke-width="2" stroke-miterlimit="10"/>
<path d="M744.764 831.293C795.409 881.991 877.521 881.991 928.166 831.293C978.811 780.595 978.811 698.398 928.166 647.701C877.521 597.003 795.409 597.003 744.764 647.701C694.118 698.398 694.118 780.595 744.764 831.293Z" stroke="white" stroke-width="2" stroke-miterlimit="10"/>
<path d="M621.604 332.666C621.604 404.365 679.666 462.487 751.29 462.487C822.914 462.487 880.977 404.365 880.977 332.666C880.977 260.968 822.914 202.846 751.29 202.846C679.666 202.846 621.604 260.968 621.604 332.666Z" stroke="white" stroke-width="2" stroke-miterlimit="10"/>
<path d="M744.768 375.389C795.413 426.086 877.525 426.086 928.17 375.389C978.815 324.691 978.815 242.494 928.17 191.796C877.525 141.099 795.413 141.099 744.768 191.796C694.122 242.494 694.122 324.691 744.768 375.389Z" stroke="white" stroke-width="2" stroke-miterlimit="10"/>
<path d="M744.768 473.516C795.413 524.213 877.525 524.213 928.17 473.516C978.815 422.818 978.815 340.621 928.17 289.923C877.525 239.226 795.413 239.226 744.768 289.923C694.122 340.621 694.122 422.818 744.768 473.516Z" stroke="white" stroke-width="2" stroke-miterlimit="10"/>
<path d="M428.389 511.561C428.389 583.259 486.452 641.382 558.075 641.382C629.699 641.382 687.762 583.259 687.762 511.561C687.762 439.863 629.699 381.74 558.075 381.74C486.452 381.74 428.389 439.863 428.389 511.561Z" stroke="white" stroke-width="2" stroke-miterlimit="10"/>
<path d="M343.217 560.627C343.217 632.325 401.28 690.448 472.904 690.448C544.527 690.448 602.59 632.325 602.59 560.627C602.59 488.929 544.527 430.807 472.904 430.807C401.28 430.807 343.217 488.929 343.217 560.627Z" stroke="white" stroke-width="2" stroke-miterlimit="10"/>
<path d="M343.217 462.487C343.217 534.185 401.28 592.308 472.904 592.308C544.527 592.308 602.59 534.185 602.59 462.487C602.59 390.789 544.527 332.666 472.904 332.666C401.28 332.666 343.217 390.789 343.217 462.487Z" stroke="white" stroke-width="2" stroke-miterlimit="10"/>
</g>
<circle opacity="0.6" cx="155" cy="510" r="150" fill="url(#paint0_linear_2437_1227)"/>
<circle opacity="0.7" cx="705" cy="220" r="220" fill="url(#paint1_linear_2437_1227)"/>
<circle opacity="0.1" cx="389.398" cy="60" r="44.5" stroke="#EBEBEB"/>
<circle opacity="0.1" cx="371" cy="60" r="44.5" stroke="#EBEBEB"/>
<defs>
<linearGradient id="paint0_linear_2437_1227" x1="15" y1="610" x2="207.5" y2="441.5" gradientUnits="userSpaceOnUse">
<stop stop-color="#FFDBA5" stop-opacity="0.2"/>
<stop offset="0.432292" stop-color="#FFE0A4" stop-opacity="0.06"/>
<stop offset="0.848958" stop-color="#FFE5A4" stop-opacity="0"/>
</linearGradient>
<linearGradient id="paint1_linear_2437_1227" x1="857.5" y1="30.5" x2="679.5" y2="259" gradientUnits="userSpaceOnUse">
<stop stop-color="#738471" stop-opacity="0.5"/>
<stop offset="0.307292" stop-color="#738471" stop-opacity="0.25"/>
<stop offset="0.6368" stop-color="#738471" stop-opacity="0.1"/>
<stop offset="1" stop-color="#738471" stop-opacity="0"/>
</linearGradient>
<clipPath id="clip0_2437_1227">
<rect width="680" height="1454" fill="white" transform="translate(1454 100) rotate(90)"/>
</clipPath>
</defs>
</svg>
