<svg width="590" height="1000" viewBox="0 0 590 1000" fill="none" xmlns="http://www.w3.org/2000/svg">
<g opacity="0.1" clip-path="url(#clip0_12_333)">
<path d="M306.395 344.78C354.27 296.9 354.27 219.27 306.395 171.39C258.519 123.509 180.898 123.509 133.022 171.39C85.1467 219.27 85.1467 296.9 133.022 344.78C180.898 392.661 258.519 392.661 306.395 344.78Z" stroke="white" stroke-width="2" stroke-miterlimit="10"/>
<path d="M352.731 425.303C400.606 377.422 400.606 299.793 352.731 251.912C304.855 204.032 227.234 204.032 179.358 251.912C131.483 299.793 131.483 377.422 179.358 425.303C227.234 473.183 304.855 473.183 352.731 425.303Z" stroke="white" stroke-width="2" stroke-miterlimit="10"/>
<path d="M260.067 425.301C307.942 377.42 307.942 299.791 260.067 251.911C212.191 204.03 134.57 204.03 86.6941 251.911C38.8186 299.791 38.8186 377.421 86.6941 425.301C134.57 473.181 212.191 473.181 260.067 425.301Z" stroke="white" stroke-width="2" stroke-miterlimit="10"/>
<path d="M644.258 344.781C692.133 296.901 692.133 219.271 644.258 171.391C596.382 123.51 518.761 123.51 470.885 171.391C423.01 219.271 423.01 296.901 470.885 344.781C518.761 392.662 596.382 392.661 644.258 344.781Z" stroke="white" stroke-width="2" stroke-miterlimit="10"/>
<path d="M690.59 425.304C738.466 377.423 738.466 299.794 690.59 251.913C642.715 204.033 565.093 204.033 517.218 251.913C469.342 299.794 469.342 377.423 517.218 425.304C565.093 473.184 642.715 473.184 690.59 425.304Z" stroke="white" stroke-width="2" stroke-miterlimit="10"/>
<path d="M597.926 425.302C645.801 377.421 645.801 299.792 597.926 251.911C550.05 204.031 472.429 204.031 424.553 251.911C376.678 299.792 376.678 377.421 424.553 425.302C472.429 473.182 550.05 473.182 597.926 425.302Z" stroke="white" stroke-width="2" stroke-miterlimit="10"/>
<path d="M475.328 162.104C523.204 114.224 523.204 36.5942 475.328 -11.2862C427.453 -59.1667 349.831 -59.1667 301.956 -11.2862C254.08 36.5942 254.08 114.224 301.956 162.104C349.831 209.985 427.453 209.985 475.328 162.104Z" stroke="white" stroke-width="2" stroke-miterlimit="10"/>
<path d="M428.992 81.5963C476.868 33.7159 476.868 -43.9136 428.992 -91.7941C381.117 -139.674 303.495 -139.674 255.62 -91.7941C207.744 -43.9136 207.744 33.7159 255.62 81.5963C303.495 129.477 381.117 129.477 428.992 81.5963Z" stroke="white" stroke-width="2" stroke-miterlimit="10"/>
<path d="M521.664 81.5907C569.54 33.7103 569.54 -43.9192 521.664 -91.7997C473.789 -139.68 396.167 -139.68 348.292 -91.7997C300.416 -43.9192 300.416 33.7103 348.292 81.5907C396.167 129.471 473.789 129.471 521.664 81.5907Z" stroke="white" stroke-width="2" stroke-miterlimit="10"/>
<path d="M813.188 50.3238C861.063 2.44341 861.063 -75.1861 813.188 -123.067C765.312 -170.947 687.691 -170.947 639.815 -123.067C591.94 -75.1861 591.94 2.44342 639.815 50.3238C687.691 98.2043 765.312 98.2043 813.188 50.3238Z" stroke="white" stroke-width="2" stroke-miterlimit="10"/>
<path d="M766.848 130.837C814.723 82.9566 814.723 5.3271 766.848 -42.5533C718.972 -90.4338 641.351 -90.4338 593.475 -42.5533C545.6 5.32709 545.6 82.9566 593.475 130.837C641.351 178.717 718.972 178.717 766.848 130.837Z" stroke="white" stroke-width="2" stroke-miterlimit="10"/>
<path d="M680.172 1000.9C747.879 1000.9 802.766 946.003 802.766 878.289C802.766 810.576 747.879 755.683 680.172 755.683C612.465 755.683 557.578 810.576 557.578 878.289C557.578 946.003 612.465 1000.9 680.172 1000.9Z" stroke="white" stroke-width="2" stroke-miterlimit="10"/>
<path d="M557.578 786.957C625.285 786.957 680.173 732.064 680.173 664.35C680.173 596.636 625.285 541.743 557.578 541.743C489.872 541.743 434.984 596.636 434.984 664.35C434.984 732.064 489.872 786.957 557.578 786.957Z" stroke="white" stroke-width="2" stroke-miterlimit="10"/>
<path d="M597.918 670.515C645.794 622.635 645.794 545.006 597.918 497.125C550.043 449.245 472.421 449.245 424.546 497.125C376.67 545.006 376.67 622.635 424.546 670.515C472.421 718.396 550.043 718.396 597.918 670.515Z" stroke="white" stroke-width="2" stroke-miterlimit="10"/>
<path d="M690.586 670.517C738.462 622.637 738.462 545.007 690.586 497.127C642.711 449.246 565.089 449.246 517.214 497.127C469.338 545.007 469.338 622.637 517.214 670.517C565.089 718.397 642.711 718.397 690.586 670.517Z" stroke="white" stroke-width="2" stroke-miterlimit="10"/>
<path d="M219.715 786.957C287.422 786.957 342.309 732.064 342.309 664.35C342.309 596.636 287.422 541.743 219.715 541.743C152.008 541.743 97.1211 596.636 97.1211 664.35C97.1211 732.064 152.008 786.957 219.715 786.957Z" stroke="white" stroke-width="2" stroke-miterlimit="10"/>
<path d="M260.059 670.515C307.934 622.634 307.934 545.005 260.059 497.124C212.183 449.244 134.562 449.244 86.6863 497.124C38.8108 545.005 38.8108 622.634 86.6863 670.515C134.562 718.395 212.183 718.395 260.059 670.515Z" stroke="white" stroke-width="2" stroke-miterlimit="10"/>
<path d="M352.723 670.516C400.598 622.636 400.598 545.007 352.723 497.126C304.847 449.246 227.226 449.246 179.35 497.126C131.475 545.007 131.475 622.636 179.35 670.516C227.226 718.397 304.847 718.397 352.723 670.516Z" stroke="white" stroke-width="2" stroke-miterlimit="10"/>
<path d="M388.653 969.623C456.359 969.623 511.247 914.73 511.247 847.016C511.247 779.302 456.359 724.409 388.653 724.409C320.946 724.409 266.059 779.302 266.059 847.016C266.059 914.73 320.946 969.623 388.653 969.623Z" stroke="white" stroke-width="2" stroke-miterlimit="10"/>
<path d="M434.985 1050.15C502.692 1050.15 557.579 995.252 557.579 927.538C557.579 859.825 502.692 804.932 434.985 804.932C367.278 804.932 312.391 859.825 312.391 927.538C312.391 995.252 367.278 1050.15 434.985 1050.15Z" stroke="white" stroke-width="2" stroke-miterlimit="10"/>
<path d="M342.309 1050.15C410.016 1050.15 464.903 995.252 464.903 927.538C464.903 859.825 410.016 804.932 342.309 804.932C274.602 804.932 219.715 859.825 219.715 927.538C219.715 995.252 274.602 1050.15 342.309 1050.15Z" stroke="white" stroke-width="2" stroke-miterlimit="10"/>
</g>
<defs>
<clipPath id="clip0_12_333">
<rect width="590" height="1000" fill="white"/>
</clipPath>
</defs>
</svg>
