<svg width="60" height="58" viewBox="0 0 60 58" fill="none" xmlns="http://www.w3.org/2000/svg">
<path fill-rule="evenodd" clip-rule="evenodd" d="M29.999 1.75C18.8804 1.75 9.86719 10.7625 9.86719 21.8799C9.86719 32.9973 18.8804 42.0099 29.999 42.0099C41.1175 42.0099 50.1308 32.9973 50.1308 21.8799C50.1308 10.7625 41.1175 1.75 29.999 1.75ZM8.36719 21.8799C8.36719 9.93399 18.0521 0.25 29.999 0.25C41.9458 0.25 51.6308 9.93399 51.6308 21.8799C51.6308 33.8259 41.9458 43.5099 29.999 43.5099C18.0521 43.5099 8.36719 33.8259 8.36719 21.8799Z" fill="white"/>
<path fill-rule="evenodd" clip-rule="evenodd" d="M37.8935 15.4631C26.775 15.4631 17.7617 24.4757 17.7617 35.5931C17.7617 46.7105 26.775 55.723 37.8935 55.723C49.0121 55.723 58.0253 46.7105 58.0253 35.5931C58.0253 24.4757 49.0121 15.4631 37.8935 15.4631ZM16.2617 35.5931C16.2617 23.6471 25.9467 13.9631 37.8935 13.9631C49.8404 13.9631 59.5253 23.6471 59.5253 35.5931C59.5253 47.539 49.8404 57.223 37.8935 57.223C25.9467 57.223 16.2617 47.539 16.2617 35.5931Z" fill="white"/>
<path fill-rule="evenodd" clip-rule="evenodd" d="M22.1045 15.4631C10.9859 15.4631 1.97266 24.4757 1.97266 35.5931C1.97266 46.7105 10.9859 55.723 22.1045 55.723C33.223 55.723 42.2362 46.7105 42.2362 35.5931C42.2362 24.4757 33.223 15.4631 22.1045 15.4631ZM0.472656 35.5931C0.472656 23.6471 10.1576 13.9631 22.1045 13.9631C34.0513 13.9631 43.7362 23.6471 43.7362 35.5931C43.7362 47.539 34.0513 57.223 22.1045 57.223C10.1576 57.223 0.472656 47.539 0.472656 35.5931Z" fill="white"/>
</svg>
