<svg width="232" height="75" viewBox="0 0 232 75" fill="none" xmlns="http://www.w3.org/2000/svg">
<path d="M48.3755 1.44339C38.7433 -1.28829 28.6203 -0.117572 19.8774 4.74269C11.1274 9.60294 4.80318 17.5709 2.06435 27.1779C-0.674479 36.7849 0.499324 46.8815 5.37231 55.6015C10.2453 64.3287 18.2341 70.6364 27.8663 73.3681C31.2809 74.3401 34.724 74.8013 38.1102 74.8013C54.4365 74.8013 69.5036 64.0591 74.1846 47.6407C79.833 27.8094 68.2587 7.08413 48.3755 1.44339ZM68.1022 45.9165C63.4 62.4059 46.1204 72.0058 29.5878 67.3158C21.5776 65.0453 14.9333 59.7948 10.8855 52.5435C6.83065 45.285 5.85602 36.8913 8.13956 28.9021C10.416 20.9128 15.6802 14.2858 22.9506 10.2486C27.6529 7.63756 32.8317 6.30364 38.0747 6.30364C40.9415 6.30364 43.8226 6.70098 46.654 7.50274C63.1865 12.1927 72.8045 29.4271 68.1022 45.9165ZM195.433 0.315247H188.426L192.737 9.26237L161.08 74.9645L161.144 74.9929H168.073L196.237 16.5279L224.401 74.9929H231.329L231.386 74.9645L195.433 0.315247ZM122.872 43.5751L101.914 0.322338H94.9072L119.365 50.8477L107.741 74.9716L107.805 75H114.733L150.708 0.315247H143.701L122.872 43.5751Z" fill="#363A45"/>
</svg>
